<svg width="55" height="18" fill="none" xmlns="http://www.w3.org/2000/svg"><path d="M10.625 15l-1.416-4.033H3.604L2.187 15H.343L5.537.908h1.738L12.471 15h-1.846zM6.377 3.047L4.121 9.473h4.57L6.436 3.047h-.06zM17.45 9.648L22.334 15h-2.188l-4.384-4.883h-.078V15h-1.68V4.844h1.68v4.492h.078l4.336-4.492h2.1L17.45 9.648zm16.104 8.038h-1.582V15H23.75V4.844h1.68v8.76h4.824v-8.76h1.68v8.76h1.62v4.082zM36.758 15h-1.68V4.844h1.68v7.558h.078l5.078-7.558h1.68V15h-1.68V7.441h-.078L36.758 15zm10.898 0h-1.68V4.844h1.68v7.558h.078l5.078-7.558h1.68V15h-1.68V7.441h-.078L47.656 15z" fill="#2F3035"/></svg>