<svg width="55" height="18" viewBox="0 0 55 18" fill="none" xmlns="http://www.w3.org/2000/svg">
<path d="M10.625 15L9.20898 10.9668H3.60352L2.1875 15H0.341797L5.53711 0.908203H7.27539L12.4707 15H10.625ZM6.37695 3.04688L4.12109 9.47266H8.69141L6.43555 3.04688H6.37695ZM17.4512 9.64844L22.334 15H20.1465L15.7617 10.1172H15.6836V15H14.0039V4.84375H15.6836V9.33594H15.7617L20.0977 4.84375H22.1973L17.4512 9.64844ZM33.5547 17.6855H31.9727V15H23.75V4.84375H25.4297V13.6035H30.2539V4.84375H31.9336V13.6035H33.5547V17.6855ZM36.7578 15H35.0781V4.84375H36.7578V12.4023H36.8359L41.9141 4.84375H43.5938V15H41.9141V7.44141H41.8359L36.7578 15ZM47.6562 15H45.9766V4.84375H47.6562V12.4023H47.7344L52.8125 4.84375H54.4922V15H52.8125V7.44141H52.7344L47.6562 15Z" fill="#2F3035"/>
</svg>
